<?xml version="1.0" encoding="UTF-8" standalone="no"?>
<svg
   xmlns:dc="http://purl.org/dc/elements/1.1/"
   xmlns:cc="http://creativecommons.org/ns#"
   xmlns:rdf="http://www.w3.org/1999/02/22-rdf-syntax-ns#"
   xmlns:svg="http://www.w3.org/2000/svg"
   xmlns="http://www.w3.org/2000/svg"
   xmlns:sodipodi="http://sodipodi.sourceforge.net/DTD/sodipodi-0.dtd"
   xmlns:inkscape="http://www.inkscape.org/namespaces/inkscape"
   inkscape:version="1.0 (4035a4f, 2020-05-01)"
   sodipodi:docname="walkman_logo.svg"
   viewBox="0 0 258.66666 258.66666"
   height="258.66666"
   width="258.66666"
   xml:space="preserve"
   id="svg34"
   version="1.1"><metadata
     id="metadata40"><rdf:RDF><cc:Work
         rdf:about=""><dc:format>image/svg+xml</dc:format><dc:type
           rdf:resource="http://purl.org/dc/dcmitype/StillImage" /><dc:title></dc:title></cc:Work></rdf:RDF></metadata><defs
     id="defs38" /><sodipodi:namedview
     inkscape:current-layer="g42"
     inkscape:window-maximized="0"
     inkscape:window-y="22"
     inkscape:window-x="0"
     inkscape:cy="151.82905"
     inkscape:cx="173.60061"
     inkscape:zoom="1.6024485"
     showgrid="false"
     id="namedview36"
     inkscape:window-height="972"
     inkscape:window-width="1920"
     inkscape:pageshadow="2"
     inkscape:pageopacity="0"
     guidetolerance="10"
     gridtolerance="10"
     objecttolerance="10"
     borderopacity="1"
     bordercolor="#666666"
     pagecolor="#ffffff" /><g
     transform="matrix(1.3333333,0,0,-1.3333333,0,258.66667)"
     inkscape:label="ink_ext_XXXXXX"
     inkscape:groupmode="layer"
     id="g42"><path
       d="M 61.022579,130.27643 C 52.669072,128.32104 46.794524,120.30315 46.243678,110.32828 45.784689,99.963936 41.929662,91.358637 34.952822,90.479111 28.251705,89.599586 24.855517,98.39803 24.396678,105.34165 24.029098,112.08893 20.816625,120.7916 12.463118,118.83621 4.6604581,116.9782 1.2642704,106.61225 1.0804051,99.670229 0.98854739,92.728206 3.7426302,83.438122 11.270167,83.92657 c 5.78269,0.391077 10.096705,-5.377714 10.280571,-14.177753 0.09186,-8.50745 4.49833,-18.285503 13.218968,-18.285503 9.270735,-0.09801 14.411171,8.311592 14.595036,20.046149 0.183865,10.168013 6.059012,17.502709 12.392399,18.187494 6.609858,0.782154 12.668121,-5.37931 13.402234,-16.623184 0.642704,-11.34348 6.058263,-21.31739 20.378325,-21.31739 15.51406,0 19.64391,12.516711 19.36969,24.543379 -0.27572,11.831289 8.16979,20.045511 18.45096,21.611416 11.19825,1.562714 22.85653,10.559092 21.38801,28.649212 -1.37712,17.79642 -14.32111,22.39198 -26.07081,19.65443 -13.49394,-3.22598 -20.37802,-14.27512 -20.1952,-25.71693 0.18431,-11.34284 -4.6798,-21.316109 -15.237295,-22.685678 -10.189162,-1.270603 -14.870758,7.138358 -15.513463,17.111628 -0.642104,9.87591 -6.97684,17.60168 -16.707013,15.35259"
       style="fill:#f9a70d;fill-opacity:1;fill-rule:evenodd;stroke:none;stroke-width:0.154659"
       id="path54" /><path
       d="m 168.51453,51.561163 c 14.13679,0 25.24513,9.778212 23.77511,25.423384 -1.55993,15.253615 -14.04389,23.370463 -27.62924,21.903527 -12.75968,-1.369569 -22.03087,-10.757023 -21.11379,-24.543699 1.00999,-14.080702 11.7497,-22.783212 24.96792,-22.783212"
       style="fill:#f9a70d;fill-opacity:1;fill-rule:evenodd;stroke:none;stroke-width:0.154659"
       id="path56" /></g></svg>
