<svg xmlns="http://www.w3.org/2000/svg" width="41.127" height="41" viewBox="0 0 41.127 41">
  <path id="google_logo" d="M23.358,42A20.208,20.208,0,0,1,2.992,22,20.208,20.208,0,0,1,23.358,2,20.53,20.53,0,0,1,37.074,7.214l.685.615-6.716,6.6L30.42,13.9a10.986,10.986,0,0,0-7.062-2.571A10.782,10.782,0,0,0,12.492,22,10.782,10.782,0,0,0,23.358,32.669,9.724,9.724,0,0,0,32.7,26.81H22.473v-9l19.965.027.149.69c1.041,4.854.208,11.994-4.012,17.1C35.082,39.853,29.964,42,23.358,42Z" transform="translate(-2.492 -1.5)" fill="#fff" stroke="rgba(0,0,0,0)" stroke-miterlimit="10" stroke-width="1"/>
</svg>
