<svg xmlns="http://www.w3.org/2000/svg" width="574.769" height="244.186" viewBox="0 0 574.769 244.186">
  <g id="sound-wave" transform="translate(-182.69 738.945)">
    <g id="g115" transform="translate(182.69 -738.945)">
      <path id="path22" d="M190.938-518.5h0a8.247,8.247,0,0,0,8.247-8.247V-593.43a8.247,8.247,0,0,0-8.247-8.247h0a8.247,8.247,0,0,0-8.247,8.247v66.687a8.247,8.247,0,0,0,8.247,8.247" transform="translate(-182.69 683.187)" fill="#fff"/>
      <path id="path24" d="M237.946-528.015h0a8.248,8.248,0,0,0,8.247-8.247V-574.47a8.248,8.248,0,0,0-8.247-8.247h0a8.247,8.247,0,0,0-8.247,8.247v38.207a8.247,8.247,0,0,0,8.247,8.247" transform="translate(-201.785 675.485)" fill="#fff"/>
      <path id="path26" d="M284.955-501.829h0a8.248,8.248,0,0,0,8.247-8.247V-659.944a8.248,8.248,0,0,0-8.247-8.247h0a8.248,8.248,0,0,0-8.247,8.247v149.868a8.248,8.248,0,0,0,8.247,8.247" transform="translate(-220.88 710.205)" fill="#fff"/>
      <path id="path28" d="M331.964-565.41h0a8.247,8.247,0,0,0,8.247-8.247V-730.7a8.246,8.246,0,0,0-8.247-8.247h0a8.247,8.247,0,0,0-8.247,8.247v157.041a8.248,8.248,0,0,0,8.247,8.247" transform="translate(-239.975 738.945)" fill="#fff"/>
      <path id="path30" d="M378.972-445.051h0a8.246,8.246,0,0,0,8.247-8.247V-608.325a8.247,8.247,0,0,0-8.247-8.247h0a8.247,8.247,0,0,0-8.247,8.247V-453.3a8.247,8.247,0,0,0,8.247,8.247" transform="translate(-259.07 689.237)" fill="#fff"/>
      <path id="path32" d="M425.98-504.844h0a8.247,8.247,0,0,0,8.247-8.247v-170.02a8.248,8.248,0,0,0-8.247-8.247h0a8.247,8.247,0,0,0-8.247,8.247v170.02a8.246,8.246,0,0,0,8.247,8.247" transform="translate(-278.165 719.615)" fill="#fff"/>
      <path id="path34" d="M472.989-532.12h0a8.248,8.248,0,0,0,8.247-8.248v-44.209a8.247,8.247,0,0,0-8.247-8.247h0a8.247,8.247,0,0,0-8.247,8.247v44.209a8.248,8.248,0,0,0,8.247,8.247" transform="translate(-297.259 679.59)" fill="#fff"/>
      <path id="path36" d="M520-518.5h0a8.247,8.247,0,0,0,8.247-8.247V-593.43A8.247,8.247,0,0,0,520-601.677h0a8.247,8.247,0,0,0-8.247,8.247v66.688A8.247,8.247,0,0,0,520-518.5" transform="translate(-316.354 683.187)" fill="#fff"/>
      <path id="path38" d="M567.006-528.015h0a8.248,8.248,0,0,0,8.247-8.247V-574.47a8.248,8.248,0,0,0-8.247-8.247h0a8.248,8.248,0,0,0-8.247,8.247v38.207a8.248,8.248,0,0,0,8.247,8.247" transform="translate(-335.449 675.485)" fill="#fff"/>
      <path id="path40" d="M614.015-501.829h0a8.247,8.247,0,0,0,8.247-8.247V-659.944a8.247,8.247,0,0,0-8.247-8.247h0a8.248,8.248,0,0,0-8.247,8.247v149.868a8.248,8.248,0,0,0,8.247,8.247" transform="translate(-354.544 710.205)" fill="#fff"/>
      <path id="path42" d="M661.023-565.41h0a8.248,8.248,0,0,0,8.247-8.247V-730.7a8.247,8.247,0,0,0-8.247-8.247h0a8.247,8.247,0,0,0-8.247,8.247v157.041a8.248,8.248,0,0,0,8.247,8.247" transform="translate(-373.639 738.945)" fill="#fff"/>
      <path id="path44" d="M708.032-445.051h0a8.246,8.246,0,0,0,8.247-8.247V-608.325a8.247,8.247,0,0,0-8.247-8.247h0a8.247,8.247,0,0,0-8.247,8.247V-453.3a8.246,8.246,0,0,0,8.247,8.247" transform="translate(-392.734 689.237)" fill="#fff"/>
    </g>
    <g id="g126" transform="translate(517.655 -738.945)">
      <path id="path46" d="M755.04-504.844h0a8.247,8.247,0,0,0,8.247-8.247v-170.02a8.248,8.248,0,0,0-8.247-8.247h0a8.248,8.248,0,0,0-8.247,8.247v170.02a8.247,8.247,0,0,0,8.247,8.247" transform="translate(-746.793 719.615)" fill="#1db954"/>
      <path id="path48" d="M802.049-532.12h0a8.247,8.247,0,0,0,8.247-8.248v-44.209a8.247,8.247,0,0,0-8.247-8.247h0a8.247,8.247,0,0,0-8.247,8.247v44.209a8.248,8.248,0,0,0,8.247,8.247" transform="translate(-765.888 679.59)" fill="#1db954"/>
      <path id="path50" d="M849.057-518.5h0a8.247,8.247,0,0,0,8.247-8.247V-593.43a8.247,8.247,0,0,0-8.247-8.247h0a8.247,8.247,0,0,0-8.247,8.247v66.688a8.247,8.247,0,0,0,8.247,8.247" transform="translate(-784.982 683.187)" fill="#1db954"/>
      <path id="path52" d="M896.067-528.015h0a8.247,8.247,0,0,0,8.247-8.247V-574.47a8.247,8.247,0,0,0-8.247-8.247h0a8.248,8.248,0,0,0-8.247,8.247v38.207a8.248,8.248,0,0,0,8.247,8.247" transform="translate(-804.078 675.485)" fill="#1db954"/>
      <path id="path54" d="M943.075-501.829h0a8.248,8.248,0,0,0,8.247-8.247V-659.944a8.248,8.248,0,0,0-8.247-8.247h0a8.247,8.247,0,0,0-8.247,8.247v149.868a8.247,8.247,0,0,0,8.247,8.247" transform="translate(-823.173 710.205)" fill="#1db954"/>
      <path id="path56" d="M990.083-565.41h0a8.247,8.247,0,0,0,8.247-8.247V-730.7a8.246,8.246,0,0,0-8.247-8.247h0a8.246,8.246,0,0,0-8.247,8.247v157.041a8.247,8.247,0,0,0,8.247,8.247" transform="translate(-842.267 738.945)" fill="#1db954"/>
      <path id="path58" d="M1037.092-445.051h0a8.247,8.247,0,0,0,8.247-8.247V-608.324a8.248,8.248,0,0,0-8.247-8.247h0a8.248,8.248,0,0,0-8.248,8.247V-453.3a8.247,8.247,0,0,0,8.248,8.247" transform="translate(-861.362 689.237)" fill="#1db954"/>
      <path id="path60" d="M1084.1-504.844h0a8.246,8.246,0,0,0,8.247-8.247V-683.112a8.247,8.247,0,0,0-8.247-8.247h0a8.247,8.247,0,0,0-8.247,8.247v170.021a8.247,8.247,0,0,0,8.247,8.247" transform="translate(-880.457 719.615)" fill="#1db954"/>
      <path id="path62" d="M1122.861-584.576v44.209a8.248,8.248,0,0,0,8.247,8.248h0a8.248,8.248,0,0,0,8.248-8.248v-44.209a8.247,8.247,0,0,0-8.248-8.247h0a8.247,8.247,0,0,0-8.247,8.247" transform="translate(-899.552 679.59)" fill="#1db954"/>
    </g>
  </g>
</svg>
